# xmcd CD database file
# Copyright (C) 1993-1998 Ti Kan
# 
# Track frame offsets:
#     183
#     15588
#     33420
#     50290
#     59540
#     75965
#     92148
#     115110
#     129670
#     147273
#     161138
#     177558
#     203220
#     221188
#     233545
#     249705
# 
# Disc length: 3530 seconds
# 
# Revision: 1
# Processed by: cddbd v1.4b41PL1 Copyright (c) Steve Scherf et al.
# Submitted via: DiscPlay 4.0.3
# 
DISCID=df0dc810
DTITLE=Jimmy Rogers - Sloppy Drunk
DYEAR=1900
DGENRE=
TTITLE0=Sloppy Drunk
TTITLE1=I can't sleep for worrying
TTITLE2=Mistreated baby
TTITLE3=Slick chick
TTITLE4=Pretty baby
TTITLE5=Left me with a broken heart
TTITLE6=I lost the good woman
TTITLE7=You're so sweet
TTITLE8=The last time
TTITLE9=Shelby county
TTITLE10=Tricky woman
TTITLE11=Sloppy Drunk II
TTITLE12=Gold tailed bird
TTITLE13=Walkin' by myself
TTITLE14=That's allright
TTITLE15=Ludella
EXTD=
EXTT0=
EXTT1=
EXTT2=
EXTT3=
EXTT4=
EXTT5=
EXTT6=
EXTT7=
EXTT8=
EXTT9=
EXTT10=
EXTT11=
EXTT12=
EXTT13=
EXTT14=
EXTT15=
PLAYORDER=
